# AST/ASF file generated using VICON BodyLanguage
# -----------------------------------------------
:version 1.10
:name VICON
:units
  mass 1.0
  length 0.45
  angle deg
:documentation
   .ast/.asf automatically generated from VICON data using
   VICON BodyBuilder and BodyLanguage model FoxedUp or BRILLIANT.MOD
:root
   order TX TY TZ RX RY RZ
   axis XYZ
   position 0 0 0  
   orientation 0 0 0 
:bonedata
  begin
     id 1 
     name lhipjoint
     direction 0.822369 -0.411937 0.392449 
     length 3.8167 
     axis 0 0 0  XYZ
  end
  begin
     id 2 
     name lfemur
     direction 0.34202 -0.939693 0  
     length 6.16791  
     axis 0 0 20  XYZ
    dof rx ry rz
    limits (-160.0 20.0)
           (-70.0 70.0)
           (-60.0 70.0)
  end
  begin
     id 3 
     name ltibia
     direction 0.34202 -0.939693 0   
     length 7.07101   
     axis 0 0 20   XYZ
    dof rx
    limits (-10.0 170.0)
  end
  begin
     id 4 
     name lfoot
     direction 0.028254 -0.0776273 0.996582   
     length 1.66799   
     axis -90 7.62852e-016 20   XYZ
    dof rx rz
    limits (-45.0 90.0)
           (-70.0 20.0)
  end
  begin
     id 5 
     name ltoes
     direction 1.53483e-011 -4.21688e-011 1   
     length 0.851674   
     axis -90 7.62852e-016 20   XYZ
    dof rx
    limits (-90.0 20.0)
  end
  begin
     id 6 
     name rhipjoint
     direction -0.822466 -0.411836 0.392353   
     length 3.81764  
     axis 0 0 0  XYZ 
  end
  begin
     id 7 
     name rfemur
     direction -0.34202 -0.939693 0   
     length 6.28636   
     axis 0 0 -20   XYZ
    dof rx ry rz
    limits (-160.0 20.0)
           (-70.0 70.0)
           (-70.0 60.0)
  end
  begin
     id 8 
     name rtibia
     direction -0.34202 -0.939693 0   
     length 6.85621   
     axis 0 0 -20   XYZ
    dof rx
    limits (-10.0 170.0)
 end
 begin
     id 9 
     name rfoot
     direction -0.0553036 -0.151945 0.98684   
     length 1.57293  
     axis -90 -7.62852e-016 -20   XYZ
    dof rx rz
    limits (-45.0 90.0)
           (-20.0 70.0)
  end
  begin
     id 10 
     name rtoes
     direction -1.53592e-011 -4.21964e-011 1   
     length 0.802812   
     axis -90 -7.62852e-016 -20   XYZ
    dof rx
    limits (-90.0 20.0)
  end
  begin
     id 11 
     name lowerback
     direction 0.00654913 0.996475 -0.0836396   
     length 1.97212   
     axis 0 0 0   XYZ
    dof rx ry rz
    limits (-20.0 45.0)
           (-30.0 30.0)
           (-30.0 30.0)
  end
  begin
     id 12 
     name upperback
     direction 0.0111875 0.994527 0.103877   
     length 1.89704   
     axis 0 0 0   XYZ
    dof rx ry rz
    limits (-20.0 45.0)
           (-30.0 30.0)
           (-30.0 30.0)
  end
  begin
     id 13 
     name thorax
     direction 0.00473652 0.989004 0.147814   
     length 1.94516   
     axis 0 0 0   XYZ
    dof rx ry rz
    limits (-20.0 45.0)
           (-30.0 30.0)
           (-30.0 30.0)
  end
  begin
     id 14 
     name lowerneck
     direction -0.00925808 0.999011 0.0434791   
     length 1.81771   
     axis 0 0 0   XYZ
    dof rx ry rz
    limits (-20.0 45.0)
           (-30.0 30.0)
           (-30.0 30.0)
  end
  begin
     id 15 
     name upperneck
     direction 0.00451595 0.964412 -0.264365   
     length 1.80434   
     axis 0 0 0   XYZ
    dof rx ry rz
    limits (-20.0 45.0)
           (-30.0 30.0)
           (-30.0 30.0)
  end
  begin
     id 16
     name head
     direction -0.00110849 0.995756 -0.0920241  
     length 1.84006  
     axis 0 0 0   XYZ
    dof rx ry rz
    limits (-20.0 45.0)
           (-30.0 30.0)
           (-30.0 30.0)
  end
  begin
     id 17 
     name lclavicle
     direction 0.921253 0.385213 0.0538957  
     length 3.67415  
     axis 0 0 0   XYZ
    dof ry rz
    limits (-20.0 10.0)
           (0.0 20.0)
  end
  begin
     id 18 
     name lhumerus
     direction 1 -4.48961e-011 6.73441e-028   
     length 4.32712   
     axis 180 -30 -90   XYZ
    dof rx ry rz
    limits (-60.0 90.0)
           (-90.0 90.0)
           (-90.0 90.0)
  end
  begin
     id 19
     name lradius
     direction 1 -4.48985e-011 -9.53507e-028   
     length 3.28587   
     axis 180 -30 -90   XYZ
    dof rx
    limits (-10.0 170.0)
  end
  begin
     id 20
     name lwrist
     direction 1 -4.48951e-011 -4.67472e-027   
     length 1.64293   
     axis 1.65735e-015 90 90   XYZ
    dof ry
    limits (-180.0 0.0)
 end
  begin
     id 21 
     name lhand
     direction 1 -4.48946e-011 -9.34945e-027   
     length 0.433158   
     axis 5.96574e-015 90 90   XYZ
    dof rx rz
    limits (-90.0 90.0)
           (-45.0 45.0)
  end
  begin
     id 22 
     name lfingers
     direction 1 -4.48882e-011 -1.86989e-026   
     length 0.349224   
     axis 1.19315e-014 90 90   XYZ
    dof rx
    limits (0.0 90.0)
  end
  begin
     id 23
     name lthumb
     direction 0.707107 -6.3493e-011 0.707107   
     length 0.501417   
     axis -90 45 2.85299e-015   XYZ
    dof rx rz
    limits (-45.0 45.0)
           (-45.0 45.0)
  end
  begin
     id 24 
     name rclavicle
     direction -0.884378 0.46502 -0.0403866   
     length 3.50218  
     axis 0 0 0   XYZ 
    dof ry rz
    limits (-10.0 20.0)
           (-20.0 0.0)
  end
  begin
     id 25 
     name rhumerus
     direction -1 -4.48964e-011 1.58188e-027  
     length 4.29104   
     axis 180 30 90   XYZ
    dof rx ry rz
    limits (-90.0 60.0)
           (-90.0 90.0)
           (-90.0 90.0)
  end
  begin
     id 26 
     name rradius
     direction -1 -4.48978e-011 -1.9722e-027   
     length 3.2272   
     axis 180 30 90   XYZ
    dof rx
    limits (-10.0 170.0)
  end
  begin
     id 27 
     name rwrist
     direction -1 -4.48969e-011 -4.67472e-027   
     length 1.6136   
     axis 1.65735e-015 -90 -90   XYZ
    dof ry
    limits (-180.0 0.0)
  end
  begin
     id 28
     name rhand
     direction -1 -4.48846e-011 -9.34945e-027   
     length 0.543623   
     axis 5.96574e-015 -90 -90   XYZ
    dof rx rz
    limits (-90.0 90.0)
           (-45.0 45.0)
  end
  begin
     id 29
     name rfingers
     direction -1 -4.49074e-011 -1.86989e-026   
     length 0.438283   
     axis 1.19315e-014 -90 -90   XYZ
    dof rx
    limits (0.0 90.0)
  end
  begin
     id 30
     name rthumb
     direction -0.707107 -6.34834e-011 0.707107   
     length 0.629289   
     axis -90 -45 -2.85299e-015   XYZ
    dof rx rz
    limits (-45.0 45.0)
           (-45.0 45.0)
  end
:hierarchy
  begin
    root lhipjoint rhipjoint lowerback
    lhipjoint lfemur
    lfemur ltibia
    ltibia lfoot
    lfoot ltoes
    rhipjoint rfemur
    rfemur rtibia
    rtibia rfoot
    rfoot rtoes
    lowerback upperback
    upperback thorax
    thorax lowerneck lclavicle rclavicle
    lowerneck upperneck
    upperneck head
    lclavicle lhumerus
    lhumerus lradius
    lradius lwrist
    lwrist lhand lthumb
    lhand lfingers
    rclavicle rhumerus
    rhumerus rradius
    rradius rwrist
    rwrist rhand rthumb
    rhand rfingers
  end

#!OML:ASF H:\GeneralSubjects\Female5\Project 1\Capture day 1\Session 1\Female5.ASF
:FULLY-SPECIFIED
:DEGREES
1
root 1.94592 16.055 4.78579 -169.858 -26.9833 -176.936
lowerback 7.35873 1.51598 -0.194714
upperback -9.6706 1.73707 1.83662
thorax -14.9031 0.748889 1.86712
lowerneck -16.2943 -1.54992 -3.69666
upperneck 31.1774 -2.53313 -0.424144
head 13.2269 -2.18324 -0.0657841
rclavicle 3.96575e-014 -1.98785e-016
rhumerus -49.6855 20.9826 -84.246
rradius 40.6042
rwrist -8.32393
rhand -29.3467 -22.2345
rfingers 7.12502
rthumb -2.68651 -52.1973
lclavicle 3.96575e-014 -1.98785e-016
lhumerus -43.8729 7.56598 77.5592
lradius 37.9246
lwrist -6.3565
lhand -27.6374 31.892
lfingers 7.12502
lthumb -1.03572 61.8692
rfemur -2.46471 9.6497 19.0187
rtibia 14.1954
rfoot -21.1975 -39.9139
rtoes 35.6575
lfemur -14.5074 -15.0854 -26.5418
ltibia 14.9719
lfoot -25.991 -5.36167
ltoes -4.19395
2
root 1.89585 16.0526 4.77237 -169.975 -26.8928 -176.612
lowerback 7.32359 1.47899 -0.178585
upperback -9.53029 1.70768 1.89047
thorax -14.7106 0.74198 1.92109
lowerneck -16.7884 -1.50712 -3.31211
upperneck 31.2318 -2.49816 -0.540844
head 13.347 -2.12503 -0.177793
rclavicle -6.08778e-015 3.08116e-014
rhumerus -49.51 20.8028 -84.1173
rradius 40.2093
rwrist -8.29513
rhand -28.8562 -20.9639
rfingers 7.12502
rthumb -2.21284 -50.9322
lclavicle -6.08778e-015 3.08116e-014
lhumerus -44.0012 8.24683 77.2768
lradius 37.9645
lwrist -5.73697
lhand -27.8617 32.4372
lfingers 7.12502
lthumb -1.25234 62.4133
rfemur -2.78391 9.59778 19.2477
rtibia 14.8774
rfoot -21.2609 -39.211
rtoes 36.9867
lfemur -14.3106 -14.7148 -26.4173
ltibia 14.8246
lfoot -25.8616 -5.25205
ltoes -4.56297
3
root 1.84752 16.0512 4.75618 -169.962 -26.7418 -176.501
lowerback 7.22591 1.43305 -0.354754
upperback -9.4586 1.62532 1.89933
thorax -14.5649 0.724793 2.04538
lowerneck -16.9786 -1.41004 -2.95261
upperneck 31.1944 -2.41817 -0.613775
head 13.3632 -2.04941 -0.255939
rclavicle -4.77332e-014 -1.68967e-014
rhumerus -49.4094 20.6367 -84.1051
rradius 39.8138
rwrist -8.45498
rhand -28.1455 -17.7561
rfingers 7.12502
rthumb -1.52641 -47.7304
lclavicle -4.77332e-014 -1.68967e-014
lhumerus -44.1322 8.72297 77.0169
lradius 37.5913
lwrist -5.55316
lhand -27.6573 32.483
lfingers 7.12502
lthumb -1.05492 62.4601
rfemur -3.1891 9.58261 19.2202
rtibia 15.5656
rfoot -21.757 -38.4322
rtoes 38.7187
lfemur -14.0811 -14.7294 -26.4879
ltibia 14.5682
lfoot -26.1409 -4.81909
ltoes -6.01373
4
root 1.80551 16.0502 4.74037 -169.918 -26.5512 -176.345
lowerback 7.11088 1.37482 -0.573248
upperback -9.45419 1.51831 1.96889
thorax -14.4922 0.700966 2.26777
lowerneck -16.9581 -1.28283 -2.55302
upperneck 31.0548 -2.27164 -0.830951
head 13.288 -1.96196 -0.382191
rclavicle -1.84373e-014 1.31198e-014
rhumerus -49.4981 20.6634 -84.1264
rradius 39.5325
rwrist -8.60362
rhand -29.1234 -20.6405
rfingers 7.12502
rthumb -2.47092 -50.6059
lclavicle -1.84373e-014 1.31198e-014
lhumerus -44.3702 9.19577 76.738
lradius 37.1009
lwrist -5.43376
lhand -26.7781 32.6417
lfingers 7.12502
lthumb -0.20579 62.6214
rfemur -3.78101 9.65317 19.2858
rtibia 16.3898
rfoot -21.8917 -37.9398
rtoes 40.3698
lfemur -13.954 -14.7687 -26.4447
ltibia 14.3463
lfoot -26.3204 -4.75054
ltoes -6.15349
5
root 1.76127 16.0441 4.7257 -169.874 -26.2932 -176.114
lowerback 6.91563 1.20107 -0.871775
upperback -9.37536 1.25716 2.13486
thorax -14.2755 0.619334 2.67035
lowerneck -17.1571 -0.991075 -2.00264
upperneck 30.9697 -1.95515 -0.935848
head 13.2824 -1.76446 -0.46631
rclavicle -2.58793e-014 -5.24792e-014
rhumerus -49.3304 21.0598 -84.2207
rradius 39.2622
rwrist -8.56593
rhand -29.2724 -20.875
rfingers 7.12502
rthumb -2.61483 -50.8387
lclavicle -2.58793e-014 -5.24792e-014
lhumerus -44.746 10.0828 76.1997
lradius 36.7683
lwrist -5.32984
lhand -25.1862 33.0899
lfingers 7.12502
lthumb 1.33172 63.0655
rfemur -4.53378 9.71564 19.3814
rtibia 17.4429
rfoot -23.3143 -36.7316
rtoes 43.2402
lfemur -13.8558 -14.7617 -26.3459
ltibia 14.1624
lfoot -26.4402 -5.12091
ltoes -4.76989
6
root 1.7269 16.0753 4.71356 -170.594 -26.0418 -176.041
lowerback 7.71933 1.24483 -1.17273
upperback -9.06311 1.32965 2.15687
thorax -14.4285 0.708599 2.83828
lowerneck -17.3708 -0.979458 -1.8491
upperneck 30.8584 -2.00492 -0.762266
head 13.2812 -1.73006 -0.431205
rclavicle 4.22666e-014 8.15017e-015
rhumerus -49.1315 20.7838 -83.982
rradius 39.0996
rwrist -8.65885
rhand -29.4272 -21.6171
rfingers 7.12502
rthumb -2.76425 -51.5789
lclavicle 4.22666e-014 8.15017e-015
lhumerus -44.8747 10.3563 76.0294
lradius 36.2697
lwrist -5.37075
lhand -24.7112 33.143
lfingers 7.12502
lthumb 1.79053 63.1153
rfemur -4.32731 9.78591 19.5076
rtibia 18.4099
rfoot -24.8993 -35.5985
rtoes 45.7165
lfemur -12.7134 -14.4976 -26.587
ltibia 13.8441
lfoot -26.5197 -5.51019
ltoes -4.89834
7
root 1.7003 16.0766 4.70422 -170.5 -25.8381 -175.978
lowerback 7.70987 1.29179 -1.53816
upperback -8.98911 1.35207 2.17951
thorax -14.3498 0.761503 3.06292
lowerneck -17.7119 -0.961775 -1.51855
upperneck 30.8473 -2.02699 -0.833678
head 13.3445 -1.69867 -0.521792
rclavicle -1.43373e-014 -1.87852e-014
rhumerus -49.0273 20.699 -83.9195
rradius 39.1721
rwrist -9.22834
rhand -29.6564 -21.945
rfingers 7.12502
rthumb -2.9856 -51.9039
lclavicle -1.43373e-014 -1.87852e-014
lhumerus -44.9329 10.5511 75.7755
lradius 35.6643
lwrist -5.57226
lhand -24.8767 33.1042
lfingers 7.12502
lthumb 1.63067 63.0777
rfemur -5.26848 9.57081 19.4217
rtibia 19.6638
rfoot -25.7012 -35.0766
rtoes 47.323
lfemur -12.6915 -14.6172 -26.6026
ltibia 13.8236
lfoot -26.79 -5.86092
ltoes -6.22886
8
root 1.67605 16.0758 4.69727 -170.465 -25.6906 -175.835
lowerback 7.7454 1.31905 -1.68885
upperback -8.94546 1.37102 2.15591
thorax -14.3263 0.786675 3.11629
lowerneck -17.9227 -0.931306 -1.20986
upperneck 30.8518 -2.06927 -0.819919
head 13.3878 -1.67183 -0.578104
rclavicle 1.0871e-015 -2.00773e-014
rhumerus -48.9366 20.4119 -83.8139
rradius 39.126
rwrist -9.52259
rhand -29.6431 -21.3876
rfingers 7.12502
rthumb -2.97278 -51.3467
lclavicle 1.0871e-015 -2.00773e-014
lhumerus -45.0506 10.7853 75.2535
lradius 35.1068
lwrist -5.95766
lhand -24.4311 33.2414
lfingers 7.12502
lthumb 2.06102 63.2112
rfemur -6.32693 8.90308 19.3804
rtibia 21.1223
rfoot -26.3758 -33.9795
rtoes 48.5883
lfemur -12.6729 -14.8124 -26.5321
ltibia 13.7992
lfoot -27.0884 -5.86811
ltoes -7.0867
9
root 1.6536 16.0742 4.69251 -170.339 -25.6187 -175.783
lowerback 7.75148 1.30788 -1.80754
upperback -9.01014 1.3308 2.14404
thorax -14.4092 0.778589 3.17995
lowerneck -17.8306 -0.849102 -1.28162
upperneck 30.9225 -2.04547 -0.517241
head 13.4026 -1.63465 -0.444157
rclavicle 1.71141e-014 -4.12478e-015
rhumerus -48.8634 19.9328 -83.3926
rradius 38.7706
rwrist -8.99975
rhand -29.569 -21.8902
rfingers 7.12502
rthumb -2.90119 -51.8502
lclavicle 1.71141e-014 -4.12478e-015
lhumerus -45.4607 11.2611 74.5831
lradius 34.5968
lwrist -6.51871
lhand -24.4255 33.1869
lfingers 7.12502
lthumb 2.06647 63.1566
rfemur -7.4229 7.95707 19.2485
rtibia 22.5268
rfoot -26.6478 -32.9772
rtoes 49.5214
lfemur -12.7511 -14.8023 -26.5264
ltibia 13.753
lfoot -27.1848 -5.63111
ltoes -7.6578
10
root 1.63066 16.074 4.68577 -170.169 -25.5153 -175.861
lowerback 7.7782 1.25981 -1.98494
upperback -9.16928 1.22197 2.14724
thorax -14.6171 0.744192 3.31061
lowerneck -17.2673 -0.789109 -1.44944
upperneck 30.82 -2.01578 -0.306041
head 13.2425 -1.62695 -0.321945
rclavicle 1.53251e-014 -2.80286e-014
rhumerus -49.057 19.7701 -83.1011
rradius 38.5519
rwrist -8.46582
rhand -29.8215 -23.6621
rfingers 7.12502
rthumb -3.14505 -53.6186
lclavicle 1.53251e-014 -2.80286e-014
lhumerus -46.1711 11.6747 73.9008
lradius 34.0756
lwrist -7.01455
lhand -25.1012 33.6539
lfingers 7.12502
lthumb 1.41385 63.6289
rfemur -8.4428 6.91927 18.9809
rtibia 23.7403
rfoot -26.255 -32.5551
rtoes 50.0268
lfemur -12.7468 -14.782 -26.6551
ltibia 13.6055
lfoot -27.2045 -5.42253
ltoes -8.43613
11
root 1.60817 16.0739 4.67732 -170.027 -25.3491 -175.999
lowerback 7.7743 1.40777 -2.34624
upperback -8.98517 1.37745 1.97141
thorax -14.4127 0.849176 3.28015
lowerneck -18.0854 -0.958938 -0.924014
upperneck 30.959 -2.35693 -0.383478
head 13.4713 -1.70254 -0.50764
rclavicle 3.69211e-014 1.28092e-014
rhumerus -48.7574 19.1979 -82.9258
rradius 38.7247
rwrist -8.79018
rhand -30.2766 -24.7629
rfingers 7.12502
rthumb -3.58457 -54.7125
lclavicle 3.69211e-014 1.28092e-014
lhumerus -45.7041 11.4512 73.4934
lradius 33.3334
lwrist -7.26579
lhand -25.246 34.4828
lfingers 7.12502
lthumb 1.27403 64.4587
rfemur -9.37759 6.09364 18.6589
rtibia 24.9428
rfoot -26.7846 -31.7621
rtoes 50.7184
lfemur -12.6145 -14.9619 -26.8578
ltibia 13.4019
lfoot -27.5799 -4.82856
ltoes -10.2428
12
root 1.59078 16.074 4.66948 -169.947 -25.2115 -175.99
lowerback 7.71091 1.53795 -2.42654
upperback -8.87458 1.54358 1.83789
thorax -14.251 0.928657 3.14008
lowerneck -18.3837 -1.13132 -0.638132
upperneck 30.9743 -2.65873 -0.459059
head 13.5373 -1.80007 -0.639808
rclavicle -1.09332e-014 -3.63527e-014
rhumerus -48.7382 18.8456 -82.9594
rradius 39.2049
rwrist -9.38112
rhand -30.1424 -25.1275
rfingers 7.12502
rthumb -3.45496 -55.0793
lclavicle -1.09332e-014 -3.63527e-014
lhumerus -45.3845 11.4595 72.9119
lradius 32.6798
lwrist -7.45809
lhand -24.7558 34.831
lfingers 7.12502
lthumb 1.74738 64.8036
rfemur -10.2724 5.50555 18.5548
rtibia 26.1137
rfoot -27.9627 -29.8895
rtoes 51.4516
lfemur -12.5093 -15.0529 -26.879
ltibia 13.1741
lfoot -27.853 -4.53335
ltoes -11.0355
